<svg width="76" height="42" fill="none" xmlns="http://www.w3.org/2000/svg"><mask id="a" style="mask-type:alpha" maskUnits="userSpaceOnUse" x="0" y="0" width="76" height="42"><path fill-rule="evenodd" clip-rule="evenodd" d="M.5 4.74a4 4 0 0 1 4-4h66.803a4 4 0 0 1 4 4v32.52a4 4 0 0 1-4 4H4.5a4 4 0 0 1-4-4V4.74Z" fill="#fff"/></mask><g mask="url(#a)"><path fill-rule="evenodd" clip-rule="evenodd" d="M39.883 33.912v-.754c0-.045-.008-.06-.024-.077a.152.152 0 0 0-.07-.039.431.431 0 0 0-.14-.013h-3.367a.448.448 0 0 0-.141.013.155.155 0 0 0-.07.039c-.015.016-.024.032-.024.077v.754c0 .045.009.061.024.077.017.017.04.03.07.04.03.008.06.012.14.012h3.369c.08 0 .11-.004.14-.013a.158.158 0 0 0 .069-.039c.016-.016.024-.032.024-.077Zm7.933.534c-.005.01-.005.022-.005.048v.741c0 .026 0 .039.005.048a.05.05 0 0 0 .02.02c.01.005.022.005.047.005h.567v1.447c0 .025 0 .038.006.048a.04.04 0 0 0 .02.02c.008.004.022.004.047.004h1.134c.025 0 .038 0 .048-.005a.048.048 0 0 0 .02-.02c.004-.01.004-.022.004-.047v-3.654c0-.025 0-.038-.005-.047a.045.045 0 0 0-.02-.02c-.01-.005-.022-.005-.047-.005h-1.134c-.025 0-.039 0-.048.004a.053.053 0 0 0-.013.01l-.005.007-.001.004c-.006.009-.006.022-.006.047v1.32h-.567c-.025 0-.037 0-.047.006a.047.047 0 0 0-.02.02Zm8.69 1.494v-2.025h2.484c.026 0 .04 0 .048-.005a.045.045 0 0 0 .02-.02c.006-.01.006-.022.006-.047v-.742c0-.025 0-.038-.005-.047a.043.043 0 0 0-.02-.02c-.01-.005-.023-.005-.049-.005h-3.562c-.026 0-.038 0-.048.004a.048.048 0 0 0-.02.02c-.005.01-.005.023-.005.048v3.654c0 .025 0 .038.005.048a.051.051 0 0 0 .02.02c.01.004.022.004.048.004h3.562c.026 0 .04 0 .048-.005a.045.045 0 0 0 .02-.02c.006-.01.006-.022.006-.048v-.741c0-.025 0-.038-.005-.048a.048.048 0 0 0-.02-.02c-.01-.005-.023-.005-.049-.005h-2.484Zm-.379-4.026c-.004.01-.004.022-.004.047v.742c0 .026 0 .038.004.048a.053.053 0 0 0 .02.02c.01.005.022.005.048.005h.75c.025 0 .038 0 .048-.005a.053.053 0 0 0 .02-.02c.004-.01.004-.022.004-.048v-.742c0-.025 0-.038-.004-.047a.056.056 0 0 0-.012-.015l-.008-.006c-.01-.004-.023-.004-.048-.004h-.75c-.026 0-.038 0-.047.004a.05.05 0 0 0-.02.02Zm1.274.047c0-.025 0-.038.005-.047a.052.052 0 0 1 .02-.02c.01-.005.022-.005.048-.005h.75c.025 0 .038 0 .048.004a.052.052 0 0 1 .02.02c.004.01.004.023.004.048v.742c0 .026 0 .038-.005.048a.057.057 0 0 1-.02.02c-.01.005-.022.005-.048.005h-.75c-.025 0-.038 0-.048-.005a.057.057 0 0 1-.02-.02c-.004-.01-.004-.022-.004-.048v-.742Zm-.634 2.485c-.005.01-.005.022-.005.047v.742c0 .025 0 .038.005.047a.045.045 0 0 0 .02.02c.009.006.022.006.047.006h1.646c.025 0 .038 0 .047-.005a.045.045 0 0 0 .02-.02c.005-.01.005-.023.005-.048v-.742c0-.025 0-.038-.005-.047a.043.043 0 0 0-.02-.02c-.01-.005-.022-.005-.047-.005h-1.646c-.025 0-.038 0-.047.005a.043.043 0 0 0-.02.02ZM45.77 33.054c-.005.009-.005.022-.005.047v3.654c0 .025 0 .038.005.048a.048.048 0 0 0 .02.02c.01.004.022.004.048.004h1.133c.026 0 .038 0 .048-.005a.047.047 0 0 0 .02-.02c.005-.01.005-.022.005-.047v-1.447h.566c.026 0 .038 0 .049-.005a.047.047 0 0 0 .019-.02c.005-.01.005-.022.005-.048v-.741c0-.026 0-.038-.005-.048a.045.045 0 0 0-.019-.02c-.01-.005-.023-.005-.049-.005h-.566v-1.32c0-.025 0-.038-.005-.047a.044.044 0 0 0-.02-.02c-.01-.005-.022-.005-.048-.005h-1.133c-.026 0-.038 0-.048.004a.045.045 0 0 0-.02.02Zm-8.444 1.186c0-.025 0-.038.004-.047a.05.05 0 0 1 .02-.02c.01-.004.023-.004.049-.004h1.133c.025 0 .038 0 .048.004a.053.053 0 0 1 .02.02c.005.01.005.022.005.047v2.515c0 .025 0 .038-.005.048a.051.051 0 0 1-.02.02c-.01.005-.023.005-.048.005h-1.133c-.026 0-.04 0-.048-.006a.05.05 0 0 1-.02-.02c-.005-.01-.005-.022-.005-.047V34.24Zm29.176-1.211a.023.023 0 0 0-.023.022v.843c0 .011.01.021.022.021h.747c.282 0 .51.227.51.506 0 .28-.228.507-.51.507H66.5a.021.021 0 0 0-.022.02v.843c0 .013.01.023.023.023h.877c.774 0 1.402-.623 1.402-1.393 0-.769-.628-1.392-1.403-1.392h-.876Zm-38.383.022c0-.013.01-.022.023-.022h.876c.775 0 1.403.623 1.403 1.392 0 .77-.628 1.393-1.403 1.393h-.876a.023.023 0 0 1-.023-.023v-.842a.02.02 0 0 1 .02-.021h.749a.508.508 0 1 0 0-1.013h-.748a.021.021 0 0 1-.02-.02v-.844Zm36.96.002c-.006.01-.006.023-.006.048v3.654c0 .025 0 .038.005.048a.044.044 0 0 0 .02.02c.01.004.022.004.048.004h1.005c.026 0 .038 0 .048-.005a.05.05 0 0 0 .02-.02c.005-.01.005-.022.005-.047v-3.654c0-.025 0-.038-.005-.047a.046.046 0 0 0-.02-.02c-.01-.005-.022-.005-.048-.005h-1.005c-.026 0-.038 0-.048.004a.042.042 0 0 0-.02.02Zm-38.366.048c0-.025 0-.038.005-.047a.046.046 0 0 1 .02-.02c.01-.005.022-.005.048-.005h1.005c.025 0 .038 0 .047.004.01.005.016.011.02.02.006.01.006.023.006.048v3.654c0 .025 0 .038-.005.048a.046.046 0 0 1-.02.02c-.01.004-.023.004-.048.004h-1.005c-.026 0-.039 0-.048-.005a.05.05 0 0 1-.02-.02c-.005-.01-.005-.022-.005-.047v-3.654Zm-8.295 2.08a.045.045 0 0 0-.043.03l-.267.759c-.01.03.011.06.043.06h1.151a.045.045 0 0 0 .041-.063l-.326-.759a.046.046 0 0 0-.041-.027h-.558Zm-.184-2.09a.045.045 0 0 1 .041-.062h1.026c.018 0 .034.01.042.026l1.648 3.709a.046.046 0 0 1-.043.063h-1.025a.048.048 0 0 1-.042-.026l-1.647-3.71Zm.356 1.144a.042.042 0 0 1 .001.035l-.998 2.54a.044.044 0 0 1-.042.029H16.49a.045.045 0 0 1-.042-.062l1.53-3.72c.016-.037.068-.038.083-.001l.53 1.18ZM9.395 33.03h1.646c.025 0 .037 0 .047.004a.044.044 0 0 1 .02.02c.005.01.005.023.005.048v3.654c0 .025 0 .038-.005.048a.047.047 0 0 1-.02.02c-.01.004-.022.004-.047.004h-1.006c-.025 0-.039 0-.048-.005a.052.052 0 0 1-.02-.02c-.005-.01-.005-.022-.005-.047v-2.84h-.567c-.025 0-.038 0-.047-.005a.042.042 0 0 1-.02-.02c-.005-.01-.005-.022-.005-.047v-.742c0-.025 0-.038.005-.047a.04.04 0 0 1 .02-.02c.01-.005.022-.005.047-.005Zm-2.113.024c-.005.01-.005.023-.005.048v3.654c0 .025 0 .038.005.048a.05.05 0 0 0 .02.02c.01.004.022.004.048.004h1.005c.026 0 .038 0 .048-.005a.05.05 0 0 0 .02-.02c.004-.01.004-.022.004-.047v-2.84h.568c.025 0 .038 0 .047-.005a.047.047 0 0 0 .02-.02c.005-.01.005-.022.005-.047v-.742c0-.025 0-.038-.005-.047a.045.045 0 0 0-.02-.02c-.01-.005-.022-.005-.047-.005H7.35c-.026 0-.039 0-.048.004a.046.046 0 0 0-.02.02Zm-.005-5.108c0-.127 0-.19.025-.238a.222.222 0 0 1 .1-.098c.048-.025.111-.025.238-.025h60.65c.127 0 .191 0 .24.025a.221.221 0 0 1 .099.098c.025.048.025.11.025.238v.165c0 .126 0 .19-.025.238a.225.225 0 0 1-.1.098c-.048.024-.112.024-.238.024H7.64c-.127 0-.19 0-.239-.024a.225.225 0 0 1-.099-.098c-.025-.049-.025-.112-.025-.238v-.165Zm29.903-15.85a.236.236 0 0 1 .005.185L32.52 24.156a.24.24 0 0 1-.225.153H27.38a.24.24 0 0 1-.223-.33L34.38 6.42a.137.137 0 0 1 .25-.003l2.55 5.68Zm-1.234-5.778a.136.136 0 0 1 .124-.19h5.075a.24.24 0 0 1 .22.142l7.945 17.7a.24.24 0 0 1-.22.338h-4.912a.24.24 0 0 1-.22-.142l-8.012-17.85Zm27.357-.19a.24.24 0 0 0-.24.239v6.494h-2.585a.136.136 0 0 0-.136.135v4.444c0 .075.061.136.136.136h2.584v6.493c0 .133.108.24.241.24h4.958a.24.24 0 0 0 .24-.24V6.367a.24.24 0 0 0-.24-.24h-4.958Zm-12.482.239a.24.24 0 0 1 .242-.24h4.958a.24.24 0 0 1 .24.24v6.494h2.585c.076 0 .137.061.137.135v4.444a.136.136 0 0 1-.137.136h-2.584v6.493a.24.24 0 0 1-.241.24h-4.958a.24.24 0 0 1-.242-.24V6.367Zm-31.28 17.702V10.841h-2.584a.136.136 0 0 1-.137-.135V6.262c0-.074.061-.134.137-.134h7.782a.24.24 0 0 1 .242.239v17.702a.24.24 0 0 1-.241.24h-4.958a.24.24 0 0 1-.241-.24ZM7.3 6.367a.24.24 0 0 1 .24-.24h7.783c.075 0 .136.061.136.135v4.444a.136.136 0 0 1-.136.135H12.74V24.07a.24.24 0 0 1-.242.24H7.54a.24.24 0 0 1-.24-.24V6.367ZM36.508 16.9a.136.136 0 0 0-.127.089l-1.351 3.63a.24.24 0 0 0 .225.322h5.74a.24.24 0 0 0 .22-.338l-1.646-3.622a.137.137 0 0 0-.123-.08h-2.938ZM.578 1.133C.5 1.287.5 1.488.5 1.891v38.218c0 .402 0 .604.079.758.07.134.18.245.316.313.155.079.358.079.763.079h72.486c.406 0 .609 0 .763-.08a.72.72 0 0 0 .317-.313c.079-.153.079-.355.079-.757V1.89c0-.403 0-.604-.08-.758a.723.723 0 0 0-.316-.314C74.754.74 74.55.74 74.144.74H1.658c-.405 0-.608 0-.763.078a.723.723 0 0 0-.316.314Z" fill="#fff"/></g></svg>