<svg viewBox="0 0 21 18" xmlns="http://www.w3.org/2000/svg"><style><![CDATA[:root>svg{display:none}:root>svg:target{display:block}]]></style><svg fill="none" viewBox="0 0 10 6" id="angle-down-white" xmlns="http://www.w3.org/2000/svg"><path d="m1.29 1 4 4 4-4" stroke="#fff" stroke-linecap="round"/></svg><svg fill="none" viewBox="0 0 7 12" id="angle-left" xmlns="http://www.w3.org/2000/svg"><path d="m6.5 1.09-5 5 5 5"/></svg><svg fill="none" viewBox="0 0 13 11" id="check-white" xmlns="http://www.w3.org/2000/svg"><path d="m0 5.506.855-.8 4.19 2.272L12.267.74l.732.666-7.64 9.334L0 5.506z" fill="#fff"/></svg><svg fill="none" viewBox="0 0 21 15" id="menu-icon" xmlns="http://www.w3.org/2000/svg"><path fill-rule="evenodd" clip-rule="evenodd" d="M5.131 8.407V6.196c0-2.06-.943-3.021-2.967-3.021H2v-1.58C2 .94 2.53.407 3.179.407H17.82c.65 0 1.18.533 1.18 1.188v1.507h-.165c-1.975 0-3.008 1.556-3.008 3.094v2.211H5.13z" fill="#8F95AC" fill-opacity=".5"/><path fill-rule="evenodd" clip-rule="evenodd" d="M17.393 14.407c-.09 0-.163-.07-.163-.153v-.981H3.77v.98c0 .085-.074.154-.164.154H2.187c-.089 0-.163-.07-.163-.153v-.981h-.849C.526 13.273 0 12.78 0 12.175v-6.13c0-.477.192-.638.76-.638h1.85c.5 0 .754.26.754.77V9.34c0 .437.381.792.849.792h12.573c.469 0 .849-.355.849-.792V6.505c0-.257.064-1.098.913-1.098h1.61c.696 0 .842.596.842 1.098v5.67c0 .606-.527 1.098-1.177 1.098h-.847v.98c0 .083-.076.154-.165.154h-1.418z" fill="#8F95AC"/></svg><svg fill="none" viewBox="0 0 18 18" id="star" xmlns="http://www.w3.org/2000/svg"><path d="M8.077.72c.341-.821 1.505-.821 1.846 0l1.752 4.211a1 1 0 0 0 .843.613l4.547.365c.887.07 1.246 1.177.57 1.756l-3.463 2.967a1 1 0 0 0-.322.992l1.058 4.437c.206.865-.735 1.549-1.494 1.085L9.52 14.768a1 1 0 0 0-1.042 0l-3.893 2.378c-.759.464-1.7-.22-1.494-1.085l1.059-4.437a1 1 0 0 0-.323-.992L.364 7.665C-.31 7.086.048 5.98.935 5.909l4.547-.365a1 1 0 0 0 .843-.613L8.077.72z" fill="#fff"/></svg><svg fill="none" viewBox="0 0 18 18" id="star-active" xmlns="http://www.w3.org/2000/svg"><path d="M8.077.72c.341-.821 1.505-.821 1.846 0l1.752 4.211a1 1 0 0 0 .843.613l4.547.365c.887.07 1.246 1.177.57 1.756l-3.463 2.967a1 1 0 0 0-.322.992l1.058 4.437c.206.865-.735 1.549-1.494 1.085L9.52 14.768a1 1 0 0 0-1.042 0l-3.893 2.378c-.759.464-1.7-.22-1.494-1.085l1.059-4.437a1 1 0 0 0-.323-.992L.364 7.665C-.31 7.086.048 5.98.935 5.909l4.547-.365a1 1 0 0 0 .843-.613L8.077.72z" fill="#FF2D23"/></svg></svg>