<svg width="21" height="15" fill="none" xmlns="http://www.w3.org/2000/svg"><path fill-rule="evenodd" clip-rule="evenodd" d="M5.131 8.407V6.196c0-2.06-.943-3.021-2.967-3.021H2v-1.58C2 .94 2.53.407 3.179.407H17.82c.65 0 1.18.533 1.18 1.188v1.507h-.165c-1.975 0-3.008 1.556-3.008 3.094v2.211H5.13Z" fill="#8F95AC" fill-opacity=".5"/><path fill-rule="evenodd" clip-rule="evenodd" d="M17.393 14.407c-.09 0-.163-.07-.163-.153v-.981H3.77v.98c0 .085-.074.154-.164.154H2.187c-.089 0-.163-.07-.163-.153v-.981h-.849C.526 13.273 0 12.78 0 12.175v-6.13c0-.477.192-.638.76-.638h1.85c.5 0 .754.26.754.77V9.34c0 .437.381.792.849.792h12.573c.469 0 .849-.355.849-.792V6.505c0-.257.064-1.098.913-1.098h1.61c.696 0 .842.596.842 1.098v5.67c0 .606-.527 1.098-1.177 1.098h-.847v.98c0 .083-.076.154-.165.154h-1.418Z" fill="#8F95AC"/></svg>